<?xml version="1.0" encoding="UTF-8"?>
<svg xmlns="http://www.w3.org/2000/svg" xmlns:xlink="http://www.w3.org/1999/xlink" viewBox="0 0 128 128" width="128px" height="128px">
<g id="surface15327780">
<path style=" stroke:none;fill-rule:nonzero;fill:rgb(100%,100%,100%);fill-opacity:1;" d="M 62 4 C 30.015625 4 4 30.015625 4 62 C 4 93.984375 30.015625 120 62 120 C 93.984375 120 120 93.984375 120 62 C 120 30.015625 93.984375 4 62 4 Z M 62 8 C 91.773438 8 116 32.226562 116 62 C 116 91.773438 91.773438 116 62 116 C 32.226562 116 8 91.773438 8 62 C 8 32.226562 32.226562 8 62 8 Z M 61.125 16.015625 C 49.335938 16.25 37.929688 21.023438 29.476562 29.46875 C 20.789062 38.164062 16 49.710938 16 62 C 16 74.289062 20.78125 85.835938 29.46875 94.53125 C 29.859375 94.914062 30.375 95.117188 30.882812 95.117188 C 31.398438 95.117188 31.914062 94.914062 32.304688 94.53125 C 33.085938 93.742188 33.085938 92.484375 32.304688 91.695312 C 31.382812 90.78125 30.53125 89.828125 29.710938 88.84375 C 29.734375 88.804688 29.78125 88.773438 29.804688 88.726562 C 34.289062 79.5 42.21875 73.140625 51.335938 71.070312 C 54.320312 74.039062 57.992188 76 62 76 C 66.007812 76 69.6875 74.039062 72.664062 71.070312 C 81.789062 73.132812 89.71875 79.5 94.203125 88.726562 C 94.226562 88.773438 94.257812 88.8125 94.28125 88.851562 C 93.460938 89.828125 92.609375 90.789062 91.695312 91.695312 C 90.914062 92.484375 90.914062 93.742188 91.695312 94.53125 C 92.085938 94.914062 92.601562 95.117188 93.117188 95.117188 C 93.625 95.117188 94.140625 94.914062 94.53125 94.53125 C 103.21875 85.835938 108 74.289062 108 62 C 108 49.710938 103.21875 38.164062 94.53125 29.46875 C 93.203125 28.148438 91.796875 26.898438 90.34375 25.757812 C 89.46875 25.078125 88.210938 25.234375 87.53125 26.101562 C 86.851562 26.96875 87 28.226562 87.875 28.90625 C 89.203125 29.953125 90.492188 31.09375 91.695312 32.304688 C 99.632812 40.234375 104 50.78125 104 62 C 104 70.429688 101.53125 78.476562 96.9375 85.320312 C 92.132812 76.507812 84.414062 70.242188 75.5 67.65625 C 78.289062 63.570312 80 58.570312 80 54 L 80 50 C 80 40.078125 71.921875 32 62 32 C 52.078125 32 44 40.078125 44 50 L 44 54 C 44 58.570312 45.703125 63.570312 48.5 67.65625 C 39.585938 70.242188 31.859375 76.507812 27.0625 85.320312 C 22.46875 78.476562 20 70.429688 20 62 C 20 50.78125 24.367188 40.234375 32.304688 32.304688 C 41.796875 22.804688 55.390625 18.40625 68.679688 20.53125 C 69.78125 20.710938 70.796875 19.960938 70.96875 18.875 C 71.140625 17.78125 70.398438 16.75 69.3125 16.578125 C 66.578125 16.140625 63.84375 15.953125 61.125 16.015625 Z M 77.320312 18.773438 C 76.539062 18.804688 75.820312 19.296875 75.53125 20.070312 C 75.140625 21.101562 75.664062 22.257812 76.703125 22.648438 C 78.125 23.179688 79.539062 23.796875 80.898438 24.476562 C 81.1875 24.625 81.5 24.695312 81.804688 24.695312 C 82.53125 24.695312 83.234375 24.296875 83.59375 23.59375 C 84.085938 22.609375 83.6875 21.40625 82.703125 20.90625 C 81.210938 20.15625 79.664062 19.484375 78.101562 18.898438 C 77.851562 18.804688 77.578125 18.765625 77.320312 18.773438 Z M 62 36 C 69.71875 36 76 42.28125 76 50 L 76 54 C 76 61.9375 69.40625 72 62 72 C 54.59375 72 48 61.9375 48 54 L 48 50 C 48 42.28125 54.28125 36 62 36 Z M 42.75 94.789062 C 41.96875 94.695312 41.179688 95.054688 40.773438 95.773438 L 38.773438 99.242188 C 38.21875 100.195312 38.546875 101.414062 39.5 101.96875 C 39.8125 102.148438 40.15625 102.242188 40.5 102.242188 C 41.1875 102.242188 41.859375 101.882812 42.226562 101.242188 L 44.226562 97.773438 C 44.78125 96.820312 44.460938 95.59375 43.5 95.039062 C 43.257812 94.90625 43.007812 94.820312 42.75 94.789062 Z M 81.25 94.789062 C 80.992188 94.820312 80.742188 94.90625 80.5 95.039062 C 79.539062 95.59375 79.21875 96.820312 79.773438 97.78125 L 81.773438 101.242188 C 82.140625 101.882812 82.8125 102.242188 83.5 102.242188 C 83.84375 102.242188 84.1875 102.15625 84.5 101.96875 C 85.460938 101.421875 85.78125 100.195312 85.226562 99.242188 L 83.226562 95.78125 C 82.8125 95.0625 82.023438 94.695312 81.25 94.789062 Z M 51.625 98.6875 C 50.859375 98.796875 50.1875 99.351562 49.96875 100.15625 L 48.9375 104.023438 C 48.648438 105.085938 49.289062 106.179688 50.351562 106.46875 C 50.523438 106.515625 50.703125 106.539062 50.875 106.539062 C 51.757812 106.539062 52.5625 105.945312 52.804688 105.054688 L 53.835938 101.1875 C 54.125 100.125 53.492188 99.023438 52.429688 98.742188 C 52.15625 98.664062 51.882812 98.648438 51.625 98.6875 Z M 72.375 98.6875 C 72.117188 98.648438 71.84375 98.664062 71.570312 98.742188 C 70.507812 99.023438 69.875 100.125 70.15625 101.1875 L 71.195312 105.054688 C 71.4375 105.945312 72.242188 106.539062 73.125 106.539062 C 73.296875 106.539062 73.46875 106.515625 73.648438 106.46875 C 74.710938 106.179688 75.34375 105.085938 75.0625 104.023438 L 74.03125 100.15625 C 73.8125 99.351562 73.140625 98.796875 72.375 98.6875 Z M 62 100 C 60.898438 100 60 100.898438 60 102 L 60 106 C 60 107.101562 60.898438 108 62 108 C 63.101562 108 64 107.101562 64 106 L 64 102 C 64 100.898438 63.101562 100 62 100 Z M 62 100 "/>
</g>
</svg>
