<?xml version="1.0" encoding="UTF-8"?>
<svg xmlns="http://www.w3.org/2000/svg" xmlns:xlink="http://www.w3.org/1999/xlink" viewBox="0 0 150 150" width="150px" height="150px">
<g id="surface15575737">
<path style=" stroke:none;fill-rule:nonzero;fill:rgb(100%,100%,100%);fill-opacity:1;" d="M 75 9 C 58.394531 9 45 22.394531 45 39 L 45 57 C 45 66.714844 49.757812 75.433594 57 80.90625 L 57 94.5 C 57 94.816406 56.941406 95.085938 56.15625 95.8125 C 55.371094 96.539062 53.976562 97.511719 52.125 98.4375 C 48.433594 100.289062 43.101562 102.1875 37.6875 104.8125 C 32.273438 107.4375 26.660156 110.777344 22.3125 115.59375 C 17.964844 120.410156 15 126.867188 15 135 L 15 138 L 135 138 L 135 135 C 135 126.796875 132.035156 120.316406 127.6875 115.5 C 123.339844 110.683594 117.726562 107.402344 112.3125 104.8125 C 106.898438 102.222656 101.554688 100.265625 97.875 98.4375 C 96.035156 97.523438 94.617188 96.632812 93.84375 95.90625 C 93.070312 95.179688 93 94.875 93 94.5 L 93 80.90625 C 100.242188 75.433594 105 66.714844 105 57 L 105 39 C 105 22.394531 91.605469 9 75 9 Z M 75 15 C 88.394531 15 99 25.605469 99 39 L 99 57 C 99 65.273438 94.675781 72.726562 88.3125 76.96875 L 87 77.90625 L 87 94.5 C 87 96.820312 88.195312 98.871094 89.71875 100.3125 C 91.242188 101.753906 93.152344 102.832031 95.25 103.875 C 99.445312 105.960938 104.601562 107.8125 109.6875 110.25 C 114.773438 112.6875 119.660156 115.628906 123.1875 119.53125 C 126.117188 122.765625 127.816406 126.914062 128.4375 132 L 21.5625 132 C 22.183594 126.972656 23.894531 122.871094 26.8125 119.625 C 30.339844 115.710938 35.226562 112.722656 40.3125 110.25 C 45.398438 107.777344 50.566406 105.867188 54.75 103.78125 C 56.835938 102.738281 58.769531 101.636719 60.28125 100.21875 C 61.792969 98.800781 63 96.808594 63 94.5 L 63 77.90625 L 61.6875 76.96875 C 55.324219 72.726562 51 65.273438 51 57 L 51 39 C 51 25.605469 61.605469 15 75 15 Z M 75 15 "/>
</g>
</svg>
