<?xml version="1.0" encoding="UTF-8"?>
<svg xmlns="http://www.w3.org/2000/svg" xmlns:xlink="http://www.w3.org/1999/xlink" viewBox="0 0 150 150" width="150px" height="150px">
<g id="surface20246358">
<path style=" stroke:none;fill-rule:nonzero;fill:rgb(100%,100%,100%);fill-opacity:1;" d="M 18 15 C 11.402344 15 6 20.402344 6 27 L 6 93 C 6 98.859375 10.265625 103.699219 15.84375 104.71875 L 19.78125 126.9375 C 20.929688 133.429688 27.164062 137.835938 33.65625 136.6875 L 134.0625 118.78125 C 140.554688 117.632812 144.960938 111.398438 143.8125 104.90625 L 132.28125 39.9375 C 132.234375 39.644531 132.140625 39.363281 132 39.09375 L 132 27 C 132 20.402344 126.597656 15 120 15 Z M 18 21 L 120 21 C 123.351562 21 126 23.648438 126 27 L 126 36 L 12 36 L 12 27 C 12 23.648438 14.648438 21 18 21 Z M 12 51 L 126 51 L 126 93 C 126 96.351562 123.351562 99 120 99 L 18 99 C 14.648438 99 12 96.351562 12 93 Z M 27 60 L 27 66 L 75 66 L 75 60 Z M 132 72.65625 L 137.90625 105.9375 C 138.492188 109.230469 136.335938 112.289062 133.03125 112.875 L 32.625 130.78125 C 29.332031 131.367188 26.273438 129.210938 25.6875 125.90625 L 21.9375 105 L 120 105 C 126.597656 105 132 99.597656 132 93 Z M 132 72.65625 "/>
</g>
</svg>
