<svg version="1.1" id="Layer_1" xmlns="http://www.w3.org/2000/svg" xmlns:xlink="http://www.w3.org/1999/xlink" x="0px" y="0px"
	 width="100%" viewBox="0 0 1080 1080" enable-background="new 0 0 1080 1080" xml:space="preserve">
<path fill="#FFFFFF" opacity="1.000000" stroke="none" 
	d="
M630.000000,1081.000000 
	C420.024170,1081.000000 210.548355,1081.000000 1.036263,1081.000000 
	C1.036263,721.065735 1.036263,361.131439 1.036263,1.098576 
	C360.892731,1.098576 720.785461,1.098576 1080.839111,1.098576 
	C1080.839111,360.999939 1080.839111,720.999939 1080.839111,1081.000000 
	C930.797607,1081.000000 780.648804,1081.000000 630.000000,1081.000000 
M520.924500,428.424286 
	C520.366150,427.890533 519.807739,427.356812 519.098816,426.139099 
	C515.267273,421.929871 512.174805,415.871552 507.420349,413.971222 
	C501.233704,411.498474 493.456451,410.857544 486.851349,412.074585 
	C476.509735,413.980072 469.666504,421.417511 467.505615,431.851532 
	C465.402069,442.008667 466.776459,451.590393 476.018494,459.114624 
	C480.280029,461.708649 484.304260,465.949860 488.845276,466.604156 
	C506.100677,469.090424 519.732300,459.743866 522.767761,441.898468 
	C523.290588,438.824829 521.703918,435.392334 521.077820,431.354248 
	C521.026001,430.588501 520.974182,429.822754 520.924500,428.424286 
M744.542786,442.477997 
	C747.163269,436.440613 746.002625,430.396698 744.136719,424.543549 
	C740.688171,413.725708 731.493713,406.876373 720.166992,406.218201 
	C708.457458,405.537750 697.287964,412.113098 692.602600,422.131439 
	C686.542603,435.089172 691.594604,451.774994 703.099487,457.753082 
	C711.119812,464.060028 725.056458,464.408783 733.007324,458.398743 
	C738.257263,454.430237 743.906250,450.680634 744.542786,442.477997 
M296.924927,555.723083 
	C295.251373,562.948059 294.724945,570.710388 291.648743,577.278381 
	C286.382263,588.522766 270.747498,593.745605 256.554016,591.004700 
	C246.235886,589.012207 239.383133,583.206299 236.172424,573.466431 
	C234.116745,567.230408 233.060776,560.664856 231.763138,553.312988 
	C231.987411,548.496948 232.394348,543.681335 232.405594,538.864807 
	C232.467056,512.550171 232.430862,486.235321 232.429092,459.920532 
	C232.428131,445.488434 232.428925,445.488525 217.915039,445.488861 
	C209.477158,445.489044 201.039261,445.488892 192.005585,445.488892 
	C192.005585,452.277985 192.027161,458.405701 192.001953,464.533234 
	C191.880722,494.004700 191.481628,523.478638 191.758865,552.946228 
	C191.858215,563.506409 191.877640,574.312866 196.600525,585.029358 
	C200.983688,602.094666 212.435242,612.901184 227.801956,620.220215 
	C242.954788,627.437500 259.124603,627.532776 275.309692,626.461487 
	C291.626953,625.381470 306.644653,620.417908 318.584686,608.634888 
	C325.715607,601.597717 331.685852,593.714294 333.435913,582.768921 
	C334.799347,573.816833 337.214783,564.879456 337.339417,555.910095 
	C337.813477,521.796692 337.548462,487.673004 337.553986,453.553162 
	C337.554169,452.389313 337.477936,451.225647 337.463043,450.061584 
	C337.419586,446.668762 336.151184,445.169830 332.331085,445.284637 
	C322.353821,445.584564 312.358124,445.536224 302.376831,445.312744 
	C298.258240,445.220520 296.933838,446.552032 296.972565,450.746887 
	C297.166382,471.716339 297.026642,492.688629 297.074463,513.659790 
	C297.105957,527.465637 297.256592,541.271179 296.924927,555.723083 
M543.518005,524.792175 
	C540.243042,538.714844 539.450195,552.779053 541.742065,566.899109 
	C547.055786,599.635681 569.936584,618.652527 599.401611,621.175415 
	C619.248047,622.874817 638.940002,620.630859 658.296631,615.640320 
	C662.009338,614.683044 663.409973,613.182190 663.383484,609.216553 
	C663.213013,583.718445 663.301392,558.218689 663.304260,532.719421 
	C663.308411,496.220795 663.311890,459.722137 663.316284,423.223511 
	C663.316956,417.259521 663.139038,417.198578 657.491211,418.187012 
	C650.283997,419.448303 643.062439,420.671936 635.806396,421.591248 
	C631.980896,422.075897 630.408020,423.434662 630.464600,427.609924 
	C630.699402,444.939545 630.575684,462.274261 630.540588,479.607025 
	C630.536804,481.485504 630.255066,483.363373 630.067627,485.666473 
	C627.966736,485.061462 626.539001,484.731049 625.167725,484.242310 
	C616.159119,481.031494 606.955933,479.055145 597.321777,479.762604 
	C583.151367,480.803070 570.388977,485.144745 559.961121,495.294098 
	C551.722412,503.312836 547.039917,513.257568 543.518005,524.792175 
M873.466125,600.485535 
	C873.466125,596.821716 873.504333,593.157410 873.460022,589.494141 
	C873.180115,566.363525 874.096130,543.135620 872.247986,520.130127 
	C870.401123,497.141357 858.779358,485.971527 837.194946,481.284424 
	C818.239929,477.168304 799.510620,479.986725 780.887024,484.115936 
	C777.789490,484.802704 776.662292,486.274841 777.105347,489.315765 
	C777.918030,494.894287 778.975342,500.467560 779.286316,506.078735 
	C779.518677,510.272308 780.968811,510.918640 784.903137,510.379333 
	C796.061768,508.849762 807.277710,507.004730 818.496765,506.816315 
	C836.494324,506.514038 845.009827,521.870667 841.395081,537.383972 
	C838.044312,536.720093 834.702209,535.701477 831.303345,535.450378 
	C820.546021,534.655762 809.930847,534.944580 799.161072,536.961914 
	C775.400635,541.412537 761.853943,557.672974 763.468933,581.351807 
	C764.567078,597.453552 771.827332,609.374756 786.896240,616.062561 
	C798.003540,620.992188 809.885498,621.742126 821.620972,621.120605 
	C837.341003,620.288086 852.983337,618.029480 868.670776,616.503784 
	C871.938782,616.185974 873.521790,614.733276 873.493896,611.469177 
	C873.465454,608.138733 873.473145,604.807922 873.466125,600.485535 
M408.517914,482.737030 
	C399.276306,482.732849 399.259613,482.732819 399.280548,473.553955 
	C399.301086,464.558380 399.350098,455.562775 399.408905,446.567322 
	C399.427094,443.785156 399.263397,441.531311 395.305847,442.294373 
	C388.464264,443.613403 381.569244,444.668396 374.678955,445.718079 
	C367.874664,446.754608 367.498260,447.088989 367.497192,453.840637 
	C367.491821,487.166382 367.349426,520.493103 367.580231,553.817261 
	C367.652557,564.258423 368.340790,574.734619 369.443817,585.120789 
	C371.583466,605.267761 385.628601,618.410095 405.701843,620.681030 
	C420.202850,622.321533 434.149292,621.089111 447.978149,616.381104 
	C452.152405,614.960083 453.254395,612.995178 452.364014,609.154053 
	C451.274323,604.453186 450.051453,599.778809 449.116486,595.047485 
	C447.921509,589.000305 447.427155,588.448303 441.678009,590.552124 
	C433.668274,593.483337 425.466522,594.063293 417.084595,593.429626 
	C410.501251,592.932007 405.373016,589.655884 403.291077,583.592041 
	C401.222015,577.565674 399.717773,571.073303 399.507416,564.734192 
	C398.971710,548.588440 399.279236,532.414124 399.285736,516.251282 
	C399.288300,509.861389 399.735565,509.455505 406.102875,509.449646 
	C418.430786,509.438263 430.759766,509.340637 443.085999,509.480316 
	C446.656494,509.520782 447.691010,508.214539 447.518402,504.744965 
	C447.229034,498.928711 447.241882,493.083252 447.451141,487.261688 
	C447.573151,483.868652 446.733337,482.594818 443.003174,482.682098 
	C431.846832,482.943146 420.679901,482.752563 408.517914,482.737030 
M734.379761,551.500061 
	C734.352600,530.014771 734.274658,508.529327 734.353271,487.044434 
	C734.364990,483.832581 733.427979,482.611877 730.082214,482.697021 
	C722.426453,482.891907 714.750732,482.981934 707.105042,482.634125 
	C702.728394,482.435089 701.634888,484.266052 701.638672,488.177338 
	C701.679077,529.818542 701.680664,571.460022 701.537598,613.100830 
	C701.522888,617.380859 703.183167,618.594055 707.160706,618.502502 
	C714.484436,618.333862 721.820435,618.386047 729.143250,618.609924 
	C732.966370,618.726807 734.408997,617.493835 734.379822,613.463684 
	C734.232544,593.143555 734.352478,572.821472 734.379761,551.500061 
M508.863831,549.500000 
	C508.863831,527.278748 508.863831,505.057434 508.863831,482.473022 
	C498.689392,482.473022 489.552155,482.335022 480.430664,482.651337 
	C479.317108,482.689941 477.459686,485.112946 477.366608,486.524567 
	C477.007294,491.973419 477.225739,497.460266 477.225708,502.932953 
	C477.225525,539.560669 477.286346,576.188660 477.141235,612.815857 
	C477.124176,617.123474 478.259277,618.762573 482.762329,618.526123 
	C489.569946,618.168579 496.423798,618.153748 503.230682,618.512146 
	C507.634644,618.743896 509.014099,617.341064 508.972748,612.932556 
	C508.777405,592.123230 508.872284,571.311096 508.863831,549.500000 
z"/>
<path fill="#8D55FA" opacity="1.000000" stroke="none" 
	d="
M543.628906,524.407471 
	C547.039917,513.257568 551.722412,503.312836 559.961121,495.294098 
	C570.388977,485.144745 583.151367,480.803070 597.321777,479.762604 
	C606.955933,479.055145 616.159119,481.031494 625.167725,484.242310 
	C626.539001,484.731049 627.966736,485.061462 630.067627,485.666473 
	C630.255066,483.363373 630.536804,481.485504 630.540588,479.607025 
	C630.575684,462.274261 630.699402,444.939545 630.464600,427.609924 
	C630.408020,423.434662 631.980896,422.075897 635.806396,421.591248 
	C643.062439,420.671936 650.283997,419.448303 657.491211,418.187012 
	C663.139038,417.198578 663.316956,417.259521 663.316284,423.223511 
	C663.311890,459.722137 663.308411,496.220795 663.304260,532.719421 
	C663.301392,558.218689 663.213013,583.718445 663.383484,609.216553 
	C663.409973,613.182190 662.009338,614.683044 658.296631,615.640320 
	C638.940002,620.630859 619.248047,622.874817 599.401611,621.175415 
	C569.936584,618.652527 547.055786,599.635681 541.742065,566.899109 
	C539.450195,552.779053 540.243042,538.714844 543.628906,524.407471 
M591.074036,510.245422 
	C587.926514,512.870972 583.858887,514.918274 581.784607,518.218445 
	C570.509216,536.156982 570.476807,555.187012 577.948669,574.457092 
	C580.530457,581.115601 585.316589,586.340637 591.660339,589.763489 
	C603.547241,596.177368 616.140320,594.443298 628.646667,592.319763 
	C629.563477,592.164062 630.723816,589.819885 630.733765,588.485474 
	C630.906799,565.201538 630.976440,541.916138 630.850769,518.632202 
	C630.840881,516.798706 629.710144,514.023804 628.280334,513.294983 
	C616.628967,507.355133 604.477783,505.238739 591.074036,510.245422 
z"/>
<path fill="#82D95C" opacity="1.000000" stroke="none" 
	d="
M873.465576,600.981445 
	C873.473145,604.807922 873.465454,608.138733 873.493896,611.469177 
	C873.521790,614.733276 871.938782,616.185974 868.670776,616.503784 
	C852.983337,618.029480 837.341003,620.288086 821.620972,621.120605 
	C809.885498,621.742126 798.003540,620.992188 786.896240,616.062561 
	C771.827332,609.374756 764.567078,597.453552 763.468933,581.351807 
	C761.853943,557.672974 775.400635,541.412537 799.161072,536.961914 
	C809.930847,534.944580 820.546021,534.655762 831.303345,535.450378 
	C834.702209,535.701477 838.044312,536.720093 841.395081,537.383972 
	C845.009827,521.870667 836.494324,506.514038 818.496765,506.816315 
	C807.277710,507.004730 796.061768,508.849762 784.903137,510.379333 
	C780.968811,510.918640 779.518677,510.272308 779.286316,506.078735 
	C778.975342,500.467560 777.918030,494.894287 777.105347,489.315765 
	C776.662292,486.274841 777.789490,484.802704 780.887024,484.115936 
	C799.510620,479.986725 818.239929,477.168304 837.194946,481.284424 
	C858.779358,485.971527 870.401123,497.141357 872.247986,520.130127 
	C874.096130,543.135620 873.180115,566.363525 873.460022,589.494141 
	C873.504333,593.157410 873.466125,596.821716 873.465576,600.981445 
M795.694092,581.575562 
	C796.947266,587.518982 799.962158,591.616333 806.137817,593.609253 
	C817.105713,597.148804 828.105957,596.296448 839.216980,595.061462 
	C842.323669,594.716064 842.949036,593.037292 842.923767,590.332825 
	C842.841370,581.510010 842.786011,572.683899 842.950439,563.863342 
	C843.010742,560.630920 841.598633,559.121216 838.631470,559.097961 
	C829.372681,559.025452 819.990112,558.154724 810.883972,559.343140 
	C799.195435,560.868652 794.041077,568.989502 795.694092,581.575562 
z"/>
<path fill="#F8B31C" opacity="1.000000" stroke="none" 
	d="
M409.017517,482.737671 
	C420.679901,482.752563 431.846832,482.943146 443.003174,482.682098 
	C446.733337,482.594818 447.573151,483.868652 447.451141,487.261688 
	C447.241882,493.083252 447.229034,498.928711 447.518402,504.744965 
	C447.691010,508.214539 446.656494,509.520782 443.085999,509.480316 
	C430.759766,509.340637 418.430786,509.438263 406.102875,509.449646 
	C399.735565,509.455505 399.288300,509.861389 399.285736,516.251282 
	C399.279236,532.414124 398.971710,548.588440 399.507416,564.734192 
	C399.717773,571.073303 401.222015,577.565674 403.291077,583.592041 
	C405.373016,589.655884 410.501251,592.932007 417.084595,593.429626 
	C425.466522,594.063293 433.668274,593.483337 441.678009,590.552124 
	C447.427155,588.448303 447.921509,589.000305 449.116486,595.047485 
	C450.051453,599.778809 451.274323,604.453186 452.364014,609.154053 
	C453.254395,612.995178 452.152405,614.960083 447.978149,616.381104 
	C434.149292,621.089111 420.202850,622.321533 405.701843,620.681030 
	C385.628601,618.410095 371.583466,605.267761 369.443817,585.120789 
	C368.340790,574.734619 367.652557,564.258423 367.580231,553.817261 
	C367.349426,520.493103 367.491821,487.166382 367.497192,453.840637 
	C367.498260,447.088989 367.874664,446.754608 374.678955,445.718079 
	C381.569244,444.668396 388.464264,443.613403 395.305847,442.294373 
	C399.263397,441.531311 399.427094,443.785156 399.408905,446.567322 
	C399.350098,455.562775 399.301086,464.558380 399.280548,473.553955 
	C399.259613,482.732819 399.276306,482.732849 409.017517,482.737671 
z"/>
<path fill="#F8B31C" opacity="1.000000" stroke="none" 
	d="
M332.816437,583.223267 
	C331.685852,593.714294 325.715607,601.597717 318.584686,608.634888 
	C306.644653,620.417908 291.626953,625.381470 275.309692,626.461487 
	C259.124603,627.532776 242.954788,627.437500 227.801956,620.220215 
	C212.435242,612.901184 200.983688,602.094666 196.812103,584.531494 
	C204.690109,577.195129 212.304703,570.297180 220.045547,563.543945 
	C223.759460,560.303894 227.712097,557.337402 231.556641,554.247009 
	C233.060776,560.664856 234.116745,567.230408 236.172424,573.466431 
	C239.383133,583.206299 246.235886,589.012207 256.554016,591.004700 
	C270.747498,593.745605 286.382263,588.522766 291.648743,577.278381 
	C294.724945,570.710388 295.251373,562.948059 297.478180,555.407593 
	C299.771881,555.992554 301.790710,556.581116 303.206818,557.845093 
	C311.365936,565.127136 319.341095,572.615051 327.484009,579.915710 
	C329.017365,581.290466 331.026733,582.134399 332.816437,583.223267 
z"/>
<path fill="#8D55FA" opacity="1.000000" stroke="none" 
	d="
M231.659897,553.780029 
	C227.712097,557.337402 223.759460,560.303894 220.045547,563.543945 
	C212.304703,570.297180 204.690109,577.195129 196.731247,584.174072 
	C191.877640,574.312866 191.858215,563.506409 191.758865,552.946228 
	C191.481628,523.478638 191.880722,494.004700 192.001953,464.533234 
	C192.027161,458.405701 192.005585,452.277985 192.005585,445.488892 
	C201.039261,445.488892 209.477158,445.489044 217.915039,445.488861 
	C232.428925,445.488525 232.428131,445.488434 232.429092,459.920532 
	C232.430862,486.235321 232.467056,512.550171 232.405594,538.864807 
	C232.394348,543.681335 231.987411,548.496948 231.659897,553.780029 
z"/>
<path fill="#88D563" opacity="1.000000" stroke="none" 
	d="
M333.126160,582.996094 
	C331.026733,582.134399 329.017365,581.290466 327.484009,579.915710 
	C319.341095,572.615051 311.365936,565.127136 303.206818,557.845093 
	C301.790710,556.581116 299.771881,555.992554 297.692627,555.084473 
	C297.256592,541.271179 297.105957,527.465637 297.074463,513.659790 
	C297.026642,492.688629 297.166382,471.716339 296.972565,450.746887 
	C296.933838,446.552032 298.258240,445.220520 302.376831,445.312744 
	C312.358124,445.536224 322.353821,445.584564 332.331085,445.284637 
	C336.151184,445.169830 337.419586,446.668762 337.463043,450.061584 
	C337.477936,451.225647 337.554169,452.389313 337.553986,453.553162 
	C337.548462,487.673004 337.813477,521.796692 337.339417,555.910095 
	C337.214783,564.879456 334.799347,573.816833 333.126160,582.996094 
z"/>
<path fill="#F8B31C" opacity="1.000000" stroke="none" 
	d="
M734.379150,552.000122 
	C734.352478,572.821472 734.232544,593.143555 734.379822,613.463684 
	C734.408997,617.493835 732.966370,618.726807 729.143250,618.609924 
	C721.820435,618.386047 714.484436,618.333862 707.160706,618.502502 
	C703.183167,618.594055 701.522888,617.380859 701.537598,613.100830 
	C701.680664,571.460022 701.679077,529.818542 701.638672,488.177338 
	C701.634888,484.266052 702.728394,482.435089 707.105042,482.634125 
	C714.750732,482.981934 722.426453,482.891907 730.082214,482.697021 
	C733.427979,482.611877 734.364990,483.832581 734.353271,487.044434 
	C734.274658,508.529327 734.352600,530.014771 734.379150,552.000122 
z"/>
<path fill="#82D95C" opacity="1.000000" stroke="none" 
	d="
M508.863770,550.000000 
	C508.872284,571.311096 508.777405,592.123230 508.972748,612.932556 
	C509.014099,617.341064 507.634644,618.743896 503.230682,618.512146 
	C496.423798,618.153748 489.569946,618.168579 482.762329,618.526123 
	C478.259277,618.762573 477.124176,617.123474 477.141235,612.815857 
	C477.286346,576.188660 477.225525,539.560669 477.225708,502.932953 
	C477.225739,497.460266 477.007294,491.973419 477.366608,486.524567 
	C477.459686,485.112946 479.317108,482.689941 480.430664,482.651337 
	C489.552155,482.335022 498.689392,482.473022 508.863831,482.473022 
	C508.863831,505.057434 508.863831,527.278748 508.863770,550.000000 
z"/>
<path fill="#DBE0D6" opacity="1.000000" stroke="none" 
	d="
M743.996033,443.000793 
	C743.906250,450.680634 738.257263,454.430237 733.007324,458.398743 
	C725.056458,464.408783 711.119812,464.060028 703.342529,457.336975 
	C703.287781,455.691650 703.400208,453.994568 702.622498,453.312622 
	C698.875671,450.026886 695.720459,446.638489 696.916077,441.079132 
	C697.043335,440.487640 696.718079,439.778961 696.535889,439.143860 
	C694.260376,431.213257 698.042542,425.034546 703.222229,420.067261 
	C709.630310,413.921936 717.881592,411.441010 726.525024,414.190735 
	C732.408875,416.062561 738.611450,419.158417 740.686890,425.474365 
	C742.328857,430.471191 741.882385,436.145477 742.488708,441.504761 
	C742.550781,442.053253 743.472961,442.504425 743.996033,443.000793 
M712.959412,419.047607 
	C708.543030,421.618958 704.962891,424.786316 703.503967,430.034821 
	C701.916565,435.745697 704.910645,444.543457 709.920410,447.736481 
	C715.685486,451.410950 725.187622,450.682373 729.970093,446.199249 
	C734.937500,441.542755 736.615540,432.560455 733.537659,427.102783 
	C729.247375,419.495300 723.418152,417.034058 712.959412,419.047607 
z"/>
<path fill="#DBE0D6" opacity="1.000000" stroke="none" 
	d="
M521.091614,432.125610 
	C521.703918,435.392334 523.290588,438.824829 522.767761,441.898468 
	C519.732300,459.743866 506.100677,469.090424 488.845276,466.604156 
	C484.304260,465.949860 480.280029,461.708649 476.205933,458.498413 
	C476.418304,456.953583 476.854736,455.659393 476.404663,455.152893 
	C471.796783,449.966614 470.821075,444.103455 471.944733,437.371643 
	C472.909149,431.593750 481.058380,420.936249 486.663727,419.040253 
	C499.675659,414.638977 506.529694,417.119751 515.975464,427.751770 
	C517.451660,429.413330 519.375000,430.677612 521.091614,432.125610 
M478.100067,442.264832 
	C475.883606,447.852448 482.737000,460.065582 488.958069,460.851471 
	C497.089417,461.878693 504.771301,462.328705 511.758118,455.485199 
	C517.054565,450.297272 517.880188,438.711517 514.099854,432.614441 
	C513.977234,432.416656 512.538879,433.034668 511.129669,432.890015 
	C510.782043,432.328979 510.371216,431.797150 510.096375,431.202515 
	C506.657257,423.761444 497.255890,420.542480 489.670227,423.596497 
	C481.077057,427.056213 478.572083,433.652924 478.100067,442.264832 
z"/>
<path fill="#BBBBB8" opacity="1.000000" stroke="none" 
	d="
M744.269409,442.739380 
	C743.472961,442.504425 742.550781,442.053253 742.488708,441.504761 
	C741.882385,436.145477 742.328857,430.471191 740.686890,425.474365 
	C738.611450,419.158417 732.408875,416.062561 726.525024,414.190735 
	C717.881592,411.441010 709.630310,413.921936 703.222229,420.067261 
	C698.042542,425.034546 694.260376,431.213257 696.535889,439.143860 
	C696.718079,439.778961 697.043335,440.487640 696.916077,441.079132 
	C695.720459,446.638489 698.875671,450.026886 702.622498,453.312622 
	C703.400208,453.994568 703.287781,455.691650 703.268616,456.989868 
	C691.594604,451.774994 686.542603,435.089172 692.602600,422.131439 
	C697.287964,412.113098 708.457458,405.537750 720.166992,406.218201 
	C731.493713,406.876373 740.688171,413.725708 744.136719,424.543549 
	C746.002625,430.396698 747.163269,436.440613 744.269409,442.739380 
z"/>
<path fill="#BBBBB8" opacity="1.000000" stroke="none" 
	d="
M521.084717,431.739929 
	C519.375000,430.677612 517.451660,429.413330 515.975464,427.751770 
	C506.529694,417.119751 499.675659,414.638977 486.663727,419.040253 
	C481.058380,420.936249 472.909149,431.593750 471.944733,437.371643 
	C470.821075,444.103455 471.796783,449.966614 476.404663,455.152893 
	C476.854736,455.659393 476.418304,456.953583 476.144928,458.171234 
	C466.776459,451.590393 465.402069,442.008667 467.505615,431.851532 
	C469.666504,421.417511 476.509735,413.980072 486.851349,412.074585 
	C493.456451,410.857544 501.233704,411.498474 507.420349,413.971222 
	C512.174805,415.871552 515.267273,421.929871 519.125061,426.811279 
	C519.741638,428.007965 520.332031,428.532471 520.922363,429.057007 
	C520.974182,429.822754 521.026001,430.588501 521.084717,431.739929 
z"/>
<path fill="#DBE0D6" opacity="1.000000" stroke="none" 
	d="
M520.923462,428.740662 
	C520.332031,428.532471 519.741638,428.007965 519.200317,427.153259 
	C519.807739,427.356812 520.366150,427.890533 520.923462,428.740662 
z"/>
<path fill="#FDFBFE" opacity="1.000000" stroke="none" 
	d="
M591.424622,510.076477 
	C604.477783,505.238739 616.628967,507.355133 628.280334,513.294983 
	C629.710144,514.023804 630.840881,516.798706 630.850769,518.632202 
	C630.976440,541.916138 630.906799,565.201538 630.733765,588.485474 
	C630.723816,589.819885 629.563477,592.164062 628.646667,592.319763 
	C616.140320,594.443298 603.547241,596.177368 591.660339,589.763489 
	C585.316589,586.340637 580.530457,581.115601 577.948669,574.457092 
	C570.476807,555.187012 570.509216,536.156982 581.784607,518.218445 
	C583.858887,514.918274 587.926514,512.870972 591.424622,510.076477 
z"/>
<path fill="#FDFBFE" opacity="1.000000" stroke="none" 
	d="
M795.575928,581.176086 
	C794.041077,568.989502 799.195435,560.868652 810.883972,559.343140 
	C819.990112,558.154724 829.372681,559.025452 838.631470,559.097961 
	C841.598633,559.121216 843.010742,560.630920 842.950439,563.863342 
	C842.786011,572.683899 842.841370,581.510010 842.923767,590.332825 
	C842.949036,593.037292 842.323669,594.716064 839.216980,595.061462 
	C828.105957,596.296448 817.105713,597.148804 806.137817,593.609253 
	C799.962158,591.616333 796.947266,587.518982 795.575928,581.176086 
z"/>
<path fill="#F8B31C" opacity="1.000000" stroke="none" 
	d="
M713.317993,418.882324 
	C723.418152,417.034058 729.247375,419.495300 733.537659,427.102783 
	C736.615540,432.560455 734.937500,441.542755 729.970093,446.199249 
	C725.187622,450.682373 715.685486,451.410950 709.920410,447.736481 
	C704.910645,444.543457 701.916565,435.745697 703.503967,430.034821 
	C704.962891,424.786316 708.543030,421.618958 713.317993,418.882324 
M724.549316,426.800018 
	C723.329468,426.305328 722.146912,425.537842 720.882996,425.364929 
	C716.314575,424.739838 712.622009,426.149323 710.768005,430.673767 
	C709.094727,434.756958 709.661926,438.542450 713.097778,441.528351 
	C716.533203,444.513916 721.335022,444.488434 725.044373,441.656494 
	C729.503601,438.252045 729.540405,432.552795 724.549316,426.800018 
z"/>
<path fill="#88D563" opacity="1.000000" stroke="none" 
	d="
M478.805359,442.075378 
	C478.572083,433.652924 481.077057,427.056213 489.670227,423.596497 
	C497.255890,420.542480 506.657257,423.761444 510.096375,431.202515 
	C510.371216,431.797150 510.782043,432.328979 511.452881,433.518066 
	C515.365112,448.878693 500.301880,458.068115 489.768158,454.025543 
	C483.980225,451.804291 481.185455,447.222961 478.805359,442.075378 
M504.987427,438.572998 
	C503.955719,432.633759 500.193176,429.129456 495.199890,429.457153 
	C490.548004,429.762421 486.426514,434.044861 486.330475,438.672882 
	C486.233246,443.358154 490.198425,447.680603 494.905853,448.021088 
	C500.381531,448.417114 503.883179,445.416992 504.987427,438.572998 
z"/>
<path fill="#FDFBFE" opacity="1.000000" stroke="none" 
	d="
M478.452698,442.170105 
	C481.185455,447.222961 483.980225,451.804291 489.768158,454.025543 
	C500.301880,458.068115 515.365112,448.878693 511.744965,433.709259 
	C512.538879,433.034668 513.977234,432.416656 514.099854,432.614441 
	C517.880188,438.711517 517.054565,450.297272 511.758118,455.485199 
	C504.771301,462.328705 497.089417,461.878693 488.958069,460.851471 
	C482.737000,460.065582 475.883606,447.852448 478.452698,442.170105 
z"/>
<path fill="#1D140A" opacity="1.000000" stroke="none" 
	d="
M724.843262,427.036560 
	C729.540405,432.552795 729.503601,438.252045 725.044373,441.656494 
	C721.335022,444.488434 716.533203,444.513916 713.097778,441.528351 
	C709.661926,438.542450 709.094727,434.756958 710.768005,430.673767 
	C712.622009,426.149323 716.314575,424.739838 720.882996,425.364929 
	C722.146912,425.537842 723.329468,426.305328 724.843262,427.036560 
z"/>
<path fill="#1D140A" opacity="1.000000" stroke="none" 
	d="
M504.979370,438.985107 
	C503.883179,445.416992 500.381531,448.417114 494.905853,448.021088 
	C490.198425,447.680603 486.233246,443.358154 486.330475,438.672882 
	C486.426514,434.044861 490.548004,429.762421 495.199890,429.457153 
	C500.193176,429.129456 503.955719,432.633759 504.979370,438.985107 
z"/>
</svg>