<svg xmlns="http://www.w3.org/2000/svg" xmlns:xlink="http://www.w3.org/1999/xlink" viewBox="0 0 512 512" width="170px" height="170px"><defs><linearGradient id="9WfDJxCpFePC4aquxYgkEa" x1="195.97" x2="195.97" y1="66.85" y2="281.43" gradientUnits="userSpaceOnUse"><stop offset="0" stop-color="#ffe594"/><stop offset="1" stop-color="#ffb855"/></linearGradient><linearGradient id="9WfDJxCpFePC4aquxYgkEb" x1="347.99" x2="347.99" y1="150.24" y2="263.43" xlink:href="#9WfDJxCpFePC4aquxYgkEa"/><linearGradient id="9WfDJxCpFePC4aquxYgkEc" x1="247.36" x2="295.58" y1="299.98" y2="482.95" gradientUnits="userSpaceOnUse"><stop offset="0" stop-color="#fcd0be"/><stop offset="1" stop-color="#efa69a"/></linearGradient></defs><path fill="url(#9WfDJxCpFePC4aquxYgkEa)" d="M191.5,198.75,148,221.61a9.6,9.6,0,0,1-13.93-10.12l8.3-48.41a9.59,9.59,0,0,0-2.76-8.5L104.47,120.3a9.6,9.6,0,0,1,5.32-16.38l48.61-7.06a9.58,9.58,0,0,0,7.22-5.25l21.74-44a9.61,9.61,0,0,1,17.22,0l21.74,44.05a9.58,9.58,0,0,0,7.22,5.25l48.61,7.06a9.6,9.6,0,0,1,5.32,16.38L252.3,154.58a9.59,9.59,0,0,0-2.76,8.5l8.3,48.41a9.6,9.6,0,0,1-13.93,10.12l-43.47-22.86A9.61,9.61,0,0,0,191.5,198.75Z"/><path fill="url(#9WfDJxCpFePC4aquxYgkEb)" d="M345,236l-28.76,15.12a6.35,6.35,0,0,1-9.21-6.69l5.49-32a6.35,6.35,0,0,0-1.82-5.62l-23.27-22.68A6.35,6.35,0,0,1,291,173.29l32.15-4.67a6.34,6.34,0,0,0,4.78-3.47L342.29,136a6.35,6.35,0,0,1,11.39,0l14.38,29.14a6.36,6.36,0,0,0,4.78,3.47L405,173.29a6.35,6.35,0,0,1,3.51,10.83L385.25,206.8a6.35,6.35,0,0,0-1.83,5.62l5.49,32a6.35,6.35,0,0,1-9.21,6.69L350.94,236A6.37,6.37,0,0,0,345,236Z"/><path fill="#e59791" d="M196.59,369.82c2.15,1.45,4.49,2.89,6.94,4.27a48.06,48.06,0,0,0,9.14,4,2.38,2.38,0,0,0,3-3,82.85,82.85,0,0,1-3.87-13.42,65.56,65.56,0,0,1-.5-21.38c1.36-10.11,2-30.38-13.31-35.91A10.6,10.6,0,0,0,184,313a290,290,0,0,0-2,31.73,25.58,25.58,0,0,0,3.89,13.9A37.84,37.84,0,0,0,196.59,369.82Z"/><path fill="#e59791" d="M257.63,378.36a3.81,3.81,0,0,0,2.68-5.26c-2-4.65-3.25-8.46-3.27-10.42-.12-10.28.24-32.48-15.46-35.93A10.42,10.42,0,0,0,228.94,336a167.62,167.62,0,0,0,.31,39.7,5.7,5.7,0,0,0,5.62,4.9h.51A103.15,103.15,0,0,0,257.63,378.36Z"/><path fill="url(#9WfDJxCpFePC4aquxYgkEc)" d="M130.06,334.84c3.3,11.3,9.71,34.77,12.71,55.8a15.45,15.45,0,0,0,8.49,11.63c8.92,4.42,24.11,13.23,36,26.75a15.64,15.64,0,0,0,8,4.9c12,2.95,43.31,10.38,65.88,13.35a501.65,501.65,0,0,1,57.58,13.34,169.39,169.39,0,0,0,27.13,5.76,434.29,434.29,0,0,0,48.12,3.42,7.18,7.18,0,0,0,7.35-7.09V397.1a7.85,7.85,0,0,0-6.22-7.59c-7.94-1.8-21.53-6.48-29.09-18.28a19.47,19.47,0,0,1-1.48-2.87,71,71,0,0,0-14.67-21.46,35.43,35.43,0,0,1-10.09-20,325.33,325.33,0,0,1-3.59-34.78,7.31,7.31,0,0,0-9.52-6.55c-8.27,2.52-19.66,9.68-24.32,29.79a45.55,45.55,0,0,0-.45,18c.45,2.68,1,5.8,1.73,9a35,35,0,0,1-9.69,32.57c-11.44,11.2-32.8,22-72.24,18.74a61.29,61.29,0,0,1-25.08-7.75c-2.49-1.41-5.17-3-7.86-4.85a52.31,52.31,0,0,1-21.1-29.5c-3.49-12.56-12.05-31.11-31.8-26.36A7.77,7.77,0,0,0,130.06,334.84Z"/></svg>