<svg xmlns="http://www.w3.org/2000/svg"  viewBox="0 0 64 64" width="128px" height="128px"><path fill="#72caaf" d="M19.571,14c-2.714,0-3.792-0.012-3.792,2.694c1.357,2.705,1.077,5.424-0.28,5.424 c-2.714-1.353-6.617,0.803-6.155,1.385c0.532,0.669-6.87,8.932-5.986,10.106c10.106,4.196,3.254,10.521,8.634,12.181 c2.383,1.009,1.472,6.774,1.472,6.774s4.567,4.893,5.265,4.342c1.059-0.838,10.541,2.659,10.987,1.865 c0.405-0.725,2.052-4.364,3.873-5.351c1.237-0.67,12.867,6.274,14.122,6.559c1.497,0.339,5.728-3.841,6.221-4.228 c0.328-0.257-1.593-2.503-1.843-3.68c-0.353-1.676,7.664-13.541,7.052-14.267c-4.567-2.108-4.622-10.113-4.567-10.542 c0.063-0.516,4.616-1.964,4.733-2.371c1.414-4.861,1.388-7.003-0.706-7.877c-1.56-1.325-6.915,0.858-9.174,1.046L46.714,14 C44,14,44,14,44,14"/><path fill="#f283a5" d="M31.786,3c-6.352,0-11.5,4.961-11.5,11.077c0,7.295,11.5,20.923,11.5,20.923 s11.5-13.388,11.5-20.923C43.286,7.961,38.139,3,31.786,3z"/><path fill="#f9dd8f" d="M31.786,11c-1.933,0-3.5,1.567-3.5,3.5s1.567,3.5,3.5,3.5c1.933,0,3.5-1.567,3.5-3.5 S33.719,11,31.786,11z"/><path fill="#5dbc9d" d="M52.959,38.678l-4.348,6.689c-2.667,4.103-0.296,9.599,4.519,10.474h0 c0.359,0.065,0.638-0.307,0.475-0.633l-1.502-3.004c-0.064-0.129-0.062-0.281,0.006-0.407l6.772-12.576 c0.074-0.137,0.07-0.303-0.01-0.437l0,0C57.545,36.575,54.363,36.518,52.959,38.678z"/><path fill="#8d6c9f" d="M31.786,36c-0.001,0-0.003,0-0.004,0c-0.293-0.001-0.571-0.131-0.76-0.355 c-0.479-0.568-11.736-13.995-11.736-21.568C19.286,7.418,24.893,2,31.786,2s12.5,5.418,12.5,12.077 c0,7.815-11.262,21.016-11.741,21.574C32.354,35.873,32.077,36,31.786,36z M31.786,4c-5.79,0-10.5,4.521-10.5,10.077 c0,5.79,7.978,16.197,10.506,19.349c2.535-3.114,10.494-13.369,10.494-19.349C42.286,8.521,37.575,4,31.786,4z"/><path fill="#8d6c9f" d="M47.905,61c-0.144,0-0.282-0.015-0.414-0.045c-0.522-0.118-1.648-0.706-4.498-2.231 c-2.754-1.475-7.812-4.183-9.065-4.341c-1.254,0.812-2.573,3.392-3.082,4.385c-0.109,0.214-0.196,0.383-0.257,0.492 c-0.591,1.052-1.954,0.694-6.002-0.368c-1.728-0.454-4.583-1.207-5.347-1.115c-0.603,0.444-1.62,0.705-6.506-4.53 c-0.21-0.225-0.305-0.534-0.257-0.837c0.312-1.994,0.257-5.152-0.839-5.683c-2.878-0.917-3.003-3.069-3.114-4.97 c-0.144-2.479-0.292-5.042-5.549-7.224c-0.165-0.068-0.308-0.179-0.416-0.322c-0.866-1.15,0.277-2.927,3.518-7.343 c0.838-1.142,1.958-2.668,2.25-3.263c-0.06-0.324,0.008-0.713,0.322-1.101c0.826-1.02,4.186-2.512,6.897-1.457 c0.206-0.402,0.287-2.013-0.663-3.905c-0.07-0.139-0.106-0.292-0.106-0.448c0-1.145,0.157-2.546,1.382-3.23 C16.986,13.004,18.042,13,19.5,13c0.536-0.009,1.054,0.436,1.054,1c0,0.552-0.43,1-0.982,1h-0.037c-1.044-0.014-2.021,0-2.397,0.21 c-0.083,0.046-0.325,0.182-0.354,1.26c1.015,2.15,1.179,4.405,0.398,5.67c-0.384,0.622-0.997,0.979-1.682,0.979 c-0.155,0-0.308-0.036-0.446-0.105c-1.663-0.83-3.956,0.071-4.669,0.59c-0.022,0.809-0.885,1.984-2.694,4.448 c-1.02,1.389-2.807,3.824-3.286,4.922c5.766,2.632,5.968,6.106,6.117,8.667c0.111,1.918,0.218,2.716,1.767,3.193 c0.032,0.01,0.064,0.021,0.095,0.035c2.636,1.117,2.352,5.627,2.138,7.358c1.509,1.583,3.307,3.26,4.027,3.662 c0.988-0.327,2.802,0.085,6.546,1.068c1.366,0.359,3.167,0.832,3.961,0.92c0.003-0.007,0.007-0.014,0.01-0.021 c1.092-2.135,2.427-4.437,4.048-5.315c1.039-0.565,3.062,0.264,10.824,4.419c1.693,0.906,3.613,1.934,4.008,2.047 c0.241-0.004,1.291-0.34,4.813-3.549c0.009-0.008,0.018-0.016,0.026-0.024c-0.12-0.201-0.27-0.437-0.396-0.634 c-0.548-0.862-1.114-1.754-1.277-2.521c-0.229-1.091,0.767-3.054,4.083-8.8c1.02-1.767,2.357-4.083,2.821-5.147 c-4.661-2.913-4.444-11.112-4.434-11.195c0.1-0.815,0.855-1.162,3.229-2.136c0.523-0.214,1.266-0.519,1.626-0.702 c1.469-5.176,0.77-5.947-0.222-6.36c-0.095-0.04-0.184-0.094-0.262-0.161c-0.665-0.564-3.722,0.215-5.365,0.634 c-1.167,0.297-2.268,0.578-3.079,0.646c-0.361,0.03-0.712-0.139-0.914-0.441L46.179,15H44c-0.552,0-1-0.448-1-1s0.448-1,1-1h2.713 c0.334,0,0.646,0.167,0.831,0.444l2.368,3.54c0.607-0.109,1.379-0.306,2.184-0.511c2.719-0.694,5.53-1.41,7.021-0.325 c3.079,1.393,2.304,5.062,1.152,9.023c-0.188,0.65-0.77,0.889-2.697,1.679c-0.603,0.247-1.535,0.629-2,0.875 c0.042,1.505,0.443,7.534,3.989,9.172c0.133,0.061,0.251,0.151,0.346,0.263c0.693,0.823,0.272,1.687-2.979,7.318 c-1.425,2.468-3.809,6.598-3.849,7.475c0.077,0.325,0.631,1.197,0.998,1.774c0.724,1.14,1.349,2.124,0.472,2.811 c-0.072,0.057-0.228,0.201-0.444,0.398C50.934,59.827,49.165,61,47.905,61z M53.315,54.965c-0.002,0.001-0.004,0.003-0.005,0.004 C53.312,54.968,53.313,54.967,53.315,54.965z M58.349,24.611c0,0.001,0,0.001,0,0.002C58.349,24.613,58.349,24.612,58.349,24.611z"/><path fill="#8d6c9f" d="M21.286,34c-1.657,0-3,1.343-3,3c0,1.657,1.343,3,3,3c1.657,0,3-1.343,3-3 C24.286,35.343,22.943,34,21.286,34z"/><path fill="#8d6c9f" d="M31.786,19c-2.481,0-4.5-2.019-4.5-4.5s2.019-4.5,4.5-4.5s4.5,2.019,4.5,4.5S34.267,19,31.786,19z M31.786,12c-1.378,0-2.5,1.122-2.5,2.5s1.122,2.5,2.5,2.5s2.5-1.122,2.5-2.5S33.164,12,31.786,12z"/><path fill="#8d6c9f" d="M49.52,47.893c0.283-0.475,0.128-1.088-0.347-1.371l-1.718-1.024 c-0.475-0.283-1.088-0.128-1.371,0.347s-0.128,1.088,0.347,1.371l1.718,1.024C48.624,48.523,49.237,48.368,49.52,47.893z M52.081,43.599c0.283-0.475,0.128-1.088-0.347-1.371l-1.718-1.024c-0.475-0.283-1.088-0.128-1.371,0.347s-0.128,1.088,0.347,1.371 l1.718,1.024C51.185,44.229,51.798,44.074,52.081,43.599z M54.642,39.305c0.283-0.475,0.128-1.088-0.347-1.371l-1.718-1.024 c-0.475-0.283-1.088-0.128-1.371,0.347c-0.283,0.475-0.128,1.088,0.347,1.371l1.718,1.024 C53.746,39.934,54.359,39.78,54.642,39.305z"/></svg>