<svg xmlns="http://www.w3.org/2000/svg"  viewBox="0 0 100 100" width="100px" height="100px"><path fill="#60be92" d="M35.625,64.375c9.918,9.918,21.835,16.912,29.197,19.461c0.628,0.218,1.304,0.216,1.928,0.007 c0.105-0.035,9.319-3.187,9.319-3.187c1.275-0.434,2.436-1.146,3.398-2.089c0.9-0.881,2.067-2.03,3.069-3.032 c1.953-1.953,1.953-5.118,0-7.071c-2.478-2.478-6.522-6.522-9-9c-1.952-1.953-5.119-1.953-7.071,0 c-1.245,1.245-5.919,5.948-9.475,9.525c-5.305-2.715-11.186-5.842-15.661-10.318c-4.475-4.475-7.603-10.356-10.318-15.661 c3.577-3.556,8.28-8.23,9.525-9.475c1.953-1.953,1.953-5.119,0-7.071c-2.478-2.478-6.522-6.522-9-9 c-1.953-1.953-5.118-1.953-7.071,0c-1.002,1.002-2.151,2.169-3.032,3.069c-0.943,0.962-1.655,2.122-2.089,3.398 c0,0-3.152,9.214-3.187,9.319c-0.209,0.624-0.21,1.3,0.007,1.928C18.713,42.54,25.707,54.457,35.625,64.375L35.625,64.375z"/><path fill="#1f212b" d="M29.5 25c-.128 0-.256-.049-.354-.146l-2-2c-.195-.195-.195-.512 0-.707s.512-.195.707 0l2 2c.195.195.195.512 0 .707C29.756 24.951 29.628 25 29.5 25zM39.5 35c-.128 0-.256-.049-.354-.146l-8-8c-.195-.195-.195-.512 0-.707s.512-.195.707 0l8 8c.195.195.195.512 0 .707C39.756 34.951 39.628 35 39.5 35z"/><path fill="#1f212b" d="M65.796,84.998c-0.441,0-0.882-0.072-1.301-0.217c-7.52-2.604-19.583-9.705-29.577-19.699 S17.823,43.026,15.219,35.505c-0.286-0.826-0.29-1.739-0.011-2.572c0.036-0.106,3.189-9.324,3.189-9.324 c0.479-1.407,1.281-2.713,2.321-3.774c0.884-0.902,2.035-2.073,3.039-3.076C24.891,15.624,26.397,15,28,15s3.109,0.624,4.243,1.758 l9,8.999C42.375,26.89,43,28.396,43,29.999c0,1.604-0.624,3.11-1.757,4.243c-1.102,1.103-4.908,4.886-8.248,8.206l-0.76,0.757 c2.808,5.458,5.71,10.669,9.801,14.76c4.092,4.091,9.302,6.993,14.76,9.801l1.341-1.349c3.168-3.187,6.584-6.622,7.621-7.659 C66.891,57.624,68.397,57,70,57c1.603,0,3.11,0.624,4.243,1.758l9,9C84.376,68.891,85,70.397,85,72s-0.624,3.109-1.757,4.242 c-1.004,1.005-2.175,2.156-3.076,3.04c-1.06,1.039-2.366,1.842-3.776,2.321l0,0c0.001,0-9.218,3.153-9.323,3.188 C66.657,84.93,66.226,84.998,65.796,84.998z M28,17c-1.068,0-2.073,0.416-2.829,1.172c-0.999,0.999-2.146,2.164-3.024,3.062 c-0.832,0.849-1.474,1.894-1.857,3.021c0,0.001-3.137,9.171-3.186,9.315c-0.141,0.421-0.14,0.864,0.004,1.281 c2.529,7.305,9.455,19.048,19.224,28.817c9.77,9.77,21.513,16.694,28.817,19.223c0.417,0.145,0.86,0.147,1.283,0.005 c0.156-0.053,9.313-3.186,9.313-3.186c1.13-0.384,2.174-1.025,3.021-1.856c0.898-0.879,2.063-2.026,3.062-3.025 C82.584,74.072,83,73.068,83,72s-0.416-2.072-1.171-2.828l-9-9C72.073,59.416,71.069,59,70,59c-1.068,0-2.073,0.416-2.829,1.172 c-1.037,1.037-4.451,4.471-7.617,7.655l-1.856,1.867c-0.307,0.309-0.777,0.382-1.165,0.186c-5.841-2.989-11.453-6.042-15.913-10.501 c-4.458-4.459-7.511-10.071-10.5-15.912c-0.198-0.388-0.124-0.858,0.185-1.165l1.279-1.271c3.338-3.318,7.142-7.101,8.244-8.202 C40.584,32.072,41,31.068,41,30c0-1.069-0.416-2.073-1.172-2.829l-9-8.999C30.073,17.416,29.068,17,28,17z"/><path fill="#1f212b" d="M71.5 67c-.128 0-.256-.049-.354-.146l-2-2c-.195-.195-.195-.512 0-.707s.512-.195.707 0l2 2c.195.195.195.512 0 .707C71.756 66.951 71.628 67 71.5 67zM81.5 77c-.128 0-.256-.049-.354-.146l-8-8c-.195-.195-.195-.512 0-.707s.512-.195.707 0l8 8c.195.195.195.512 0 .707C81.756 76.951 81.628 77 81.5 77z"/></svg>