<svg enable-background="new 0 0 763 965.859" height="966" viewBox="0 0 763 965.859" width="763" xmlns="http://www.w3.org/2000/svg"><path d="m678 960.859h-593c-44.183 0-80-35.817-80-80v-795.859c0-44.183 35.817-80 80-80h593c44.183 0 80 35.817 80 80v795.859c0 44.183-35.817 80-80 80z" fill="#f3f6e7"/><path d="m678 965.859h-593c-46.869 0-85-38.131-85-85v-795.859c0-46.869 38.131-85 85-85h593c46.869 0 85 38.131 85 85v795.859c0 46.869-38.131 85-85 85zm-593-955.859c-41.355 0-75 33.645-75 75v795.859c0 41.355 33.645 75 75 75h593c41.355 0 75-33.645 75-75v-795.859c0-41.355-33.645-75-75-75z" fill="#383a47"/><circle cx="381.5" cy="294.617" fill="#aac4fa" r="188.75"/><path d="m381.5 488.367c-106.834 0-193.75-86.916-193.75-193.75s86.916-193.75 193.75-193.75 193.75 86.916 193.75 193.75-86.916 193.75-193.75 193.75zm0-377.5c-101.32 0-183.75 82.43-183.75 183.75s82.43 183.75 183.75 183.75 183.75-82.43 183.75-183.75-82.43-183.75-183.75-183.75z" fill="#383a47"/><circle cx="381.25" cy="243.065" fill="#f3f6e7" r="45.448"/><path d="m381.25 293.512c-27.817 0-50.448-22.63-50.448-50.447s22.631-50.448 50.448-50.448 50.448 22.631 50.448 50.448-22.631 50.447-50.448 50.447zm0-90.895c-22.303 0-40.448 18.145-40.448 40.448s18.145 40.447 40.448 40.447 40.448-18.145 40.448-40.447-18.145-40.448-40.448-40.448z" fill="#383a47"/><path d="m381.25 288.512c-42.343 0-76.668 34.325-76.668 76.668v13.437h153.336v-13.437c0-42.342-34.325-76.668-76.668-76.668z" fill="#f3f6e7"/><g fill="#383a47"><path d="m457.918 383.617h-153.336c-2.761 0-5-2.239-5-5v-13.437c0-45.032 36.636-81.668 81.668-81.668s81.668 36.636 81.668 81.668v13.437c0 2.761-2.239 5-5 5zm-148.336-10h143.336v-8.437c0-39.518-32.15-71.668-71.668-71.668s-71.668 32.15-71.668 71.668z"/><path d="m655.25 581.617h-548c-2.761 0-5-2.239-5-5s2.239-5 5-5h548c2.761 0 5 2.239 5 5s-2.239 5-5 5z"/><path d="m655.25 677.617h-548c-2.761 0-5-2.239-5-5s2.239-5 5-5h548c2.761 0 5 2.239 5 5s-2.239 5-5 5z"/><path d="m655.25 773.617h-548c-2.761 0-5-2.239-5-5s2.239-5 5-5h548c2.761 0 5 2.239 5 5s-2.239 5-5 5z"/><path d="m655.25 869.617h-548c-2.761 0-5-2.239-5-5s2.239-5 5-5h548c2.761 0 5 2.239 5 5s-2.239 5-5 5z"/></g></svg>